<svg xmlns="http://www.w3.org/2000/svg" version="1.1" xmlns:xlink="http://www.w3.org/1999/xlink" xmlns:svgjs="http://svgjs.dev/svgjs" width="2000" height="2250" viewBox="0 0 2000 2250"><g transform="matrix(1,0,0,1,3.410605131648481e-13,0)"><svg viewBox="0 0 320 360" data-background-color="#ffffff" preserveAspectRatio="xMidYMid meet" height="2250" width="2000" xmlns="http://www.w3.org/2000/svg" xmlns:xlink="http://www.w3.org/1999/xlink"><g id="tight-bounds" transform="matrix(1,0,0,1,-5.684341886080802e-14,0)"><svg viewBox="0 0 320 360" height="360" width="320"><g><svg></svg></g><g><svg viewBox="0 0 320 360" height="360" width="320"><g><path xmlns="http://www.w3.org/2000/svg" d="M85.508 32.884c0-1.117 0.558-2.233 1.675-2.233 1.117 0 2.233 0.558 2.234 2.233 0.558 0 1.675 0 2.233-0.558 2.233 0 4.467-0.558 6.141 0 1.675 0.558 2.792 0.558 4.467 1.117 1.675 0.558 2.792 0 3.908-0.559 2.233-0.558 3.908-1.675 6.141-2.233 1.117-0.558 1.675-0.558 2.792-0.558 1.117-0.558 2.233-0.558 3.908-1.117 2.792-0.558 5.583-1.117 7.817-2.233 2.233-1.117 4.467-1.117 6.699-1.675 1.117 0 1.675-0.558 2.792-1.117 0.558 0 0.558-0.558 1.116-1.116 1.117-0.558 1.675-1.117 2.792-0.559 0.558 0.558 1.675 0.558 2.233 0h0.559c3.35 0 6.7-0.558 10.608 0 0.558 0 1.117 0 1.116 0 1.675-1.117 3.908-1.117 6.142-1.116 0.558 0 1.675 0 2.233 0h0.558c2.233 0 4.467 0 6.142 0.558 1.675 0 2.792 0.558 4.466 1.117 1.675 0 2.792 0 4.467 0.558 1.117 0 2.233 0 3.35 0 0.558 0 1.117 0 1.116 0 2.233 0.558 4.467 0.558 6.7 0.558 1.675 0.558 3.35 1.117 5.583 1.117 0.558 0 1.117 0 1.675 0 0.558 0 1.117 0.558 1.675 0.558l0.558 0.559c2.233 0 3.908 1.117 6.142 1.116 0.558 0 1.675 0 2.233 0.559 1.675 1.117 3.908 1.675 6.141 1.675 1.117 0 1.675 0.558 2.234 1.116 1.675 0.558 2.792 1.117 4.466 1.675 1.117 0.558 2.233 0 3.35 0.558 1.675 0.558 3.908 1.117 5.583 2.792 1.117 1.117 2.233 1.117 3.908 2.233 0.558 0 1.117 0.558 1.675 1.117 1.675 1.117 3.35 2.233 5.025 2.791 0.558 0 1.117 0.558 1.675 0.559 1.675 1.117 3.35 2.792 5.583 3.908 1.117 0.558 1.675 1.117 2.792 1.675h0.558c1.675 1.675 3.908 2.792 5.583 4.466 1.675 1.675 2.792 2.792 5.025 3.909 0 0 0 0 0 0.558 0.558 1.117 1.117 1.675 2.233 2.233 1.117 0.558 1.675 1.117 2.234 1.675 1.675 1.117 3.35 2.233 4.466 3.35 0.558 0.558 1.117 1.117 2.233 2.233 0.558 0.558 1.117 1.117 1.675 1.117 2.233 0.558 3.35 2.233 5.025 3.908 1.117 1.117 2.792 2.792 3.908 3.908 0.558 0.558 1.117 1.675 1.675 2.792 1.117 3.35 2.792 6.7 4.467 9.491 0 0 0 0.558 0.558 1.117v0.558c1.117 1.117 1.675 2.792 2.792 3.908 0.558 0.558 0.558 1.117 1.116 1.675 1.117 1.675 1.675 3.908 2.792 5.583 1.675 2.792 2.792 5.583 3.908 8.375v0.558c0.558 1.117 1.117 2.233 1.675 3.908 0 1.117 1.117 2.233 1.675 3.909 0.558 2.792 2.233 5.583 2.791 8.933 0 0.558 0.558 1.117 0.559 2.233 0.558 1.675 1.117 3.35 1.675 5.025 0 0.558 0.558 1.117 1.116 1.675 1.117 1.117 1.117 2.233 1.117 3.35-0.558 2.233 0 4.467 0.558 6.699 0 0.558 0 1.117 0 2.234 0.558 2.233 1.117 5.025 1.117 7.258 0 0.558 0 1.675 0 2.233 0 1.675 0.558 3.35 1.675 5.025 0 0.558 0.558 0.558 0.558 0.558 0.558 0.558 1.117 1.675 1.675 2.233 0.558 0.558 0.558 0.558 1.117 1.117 1.117 1.117 1.675 2.233 1.675 3.908 0 0.558-0.558 1.675-0.559 2.233 0 0.558 0 1.675 0.559 2.234 0.558 0.558 0.558 1.117 0.558 1.675 0 0.558-0.558 1.117-1.117 1.116v0c-0.558 1.675-2.792 2.233-3.35 3.908-0.558 2.233-1.117 4.467-1.674 6.7-0.558 1.675-0.558 2.792-0.559 4.467 0 1.675-0.558 2.792-0.558 4.466-0.558 2.233-1.117 4.467-1.675 6.7 0 1.117-0.558 2.233-0.558 3.35 0.558 0.558 1.117 1.117 1.675 1.116 1.117 1.117 2.233 2.233 3.349 3.35 0.558 0.558 0.558 1.117 0 1.117-0.558 0.558-1.117 0.558-1.674 0.558-0.558-0.558-1.675-1.117-2.234-1.116-0.558-0.558-1.675-1.117-2.791-0.559 0 1.117-0.558 2.233-0.559 2.792-0.558 1.117-1.117 2.792-1.116 3.908-0.558 2.233-1.675 3.908-2.233 6.142-1.117 2.792-2.233 5.025-3.35 7.258-0.558 1.117-1.117 2.233-1.675 3.35v0c0 1.675-1.675 3.35-2.234 5.024-1.117 2.233-2.233 4.467-3.349 7.258-0.558 1.117-1.117 2.233-1.675 2.792-1.117 2.792-2.233 5.025-3.909 7.258-1.117 1.675-2.233 2.792-3.349 3.35-1.117 1.117-2.233 2.233-3.35 3.35-0.558 0.558-1.117 1.117-1.675 1.675-0.558 0.558-0.558 0.558-1.117 1.116-1.117 1.675-2.792 2.792-3.908 4.467-1.117 1.117-1.675 2.233-3.35 3.35-1.117 1.117-2.233 2.792-3.908 3.35-0.558 0.558-1.117 1.675-1.675 2.233-0.558 0.558-1.117 1.675-1.675 2.233 0 1.117 0.558 2.233 0.558 2.792 0 1.675-1.675 2.233-2.791 1.116-1.675-1.117-1.675-1.117-3.35 0-1.675 1.117-3.35 2.792-5.583 3.35-0.558 0-0.558 0.558-1.117 0.559-1.117 0.558-1.675 1.675-2.792 2.233-1.117 1.117-2.792 1.675-3.908 2.791-0.558 0.558-1.117 0.558-1.675 1.117-1.675 1.117-3.35 1.675-5.024 3.35-0.558 0.558-1.117 0.558-1.675 1.117 0 0.558 0 0.558 0 1.116 0 1.117-1.117 2.233-2.792 1.675-1.675-0.558-2.792 0-4.466 0-1.675 0.558-3.35 1.675-5.025 2.233-0.558 0-1.117 0.558-1.675 1.117-1.675 1.117-3.35 1.675-5.025 2.233-1.117 0-2.233 1.117-3.35 1.117-0.558 0-1.117 0.558-1.675 0.558h-0.558c-2.233 1.675-4.467 2.792-6.7 4.467-0.558 0-0.558 0.558-1.117 1.116-0.558 1.117-1.117 1.675-2.233 1.675-2.792 0-3.908 2.233-3.35 4.467 0 0.558 0.558 1.117 0.559 1.675 0.558 1.117 0 2.233-0.559 2.791-0.558 0.558-2.233 0.558-2.791-0.558-1.117-1.117-1.675-2.233-2.234-3.908-0.558-1.117-1.675-2.233-2.791-2.792-1.117-0.558-2.233-0.558-3.35 0-0.558 0-0.558 0.558-1.117 0.558-1.117 1.117-2.792 1.675-4.466 1.117-0.558 0-1.675 0-1.675 0.558-0.558 0.558-0.558 1.675 0 2.234 1.117 1.117 0.558 2.233 0.558 3.908 0 2.233-1.675 3.35-3.908 2.233-0.558-0.558-1.117-0.558-1.675-1.117-0.558 0-0.558-0.558-0.558-1.116-0.558-0.558-0.558-1.675-1.117-2.792-1.117 0.558-2.233 0.558-3.35 1.117-0.558 0-1.117 0.558-1.675 0.558-1.675 0-2.233 0-2.791-1.675-0.558-1.675-1.675-1.675-2.792-2.233-2.233-0.558-5.025-0.558-7.258-1.675h-0.558c-2.233-1.675-4.467-1.675-7.258-1.675-1.675 0-3.35 0.558-5.025 0.558-1.675 0-2.792 0.558-3.908 1.675-0.558 0.558-1.117 1.117-1.675 1.117-0.558-0.558-0.558-1.117-1.117-1.675v-0.558c0-0.558-0.558-1.117-1.116-0.559-1.117 0.558-2.233-0.558-3.35-1.116-0.558-0.558-1.675-1.675-1.675-2.792-0.558-0.558-1.117-1.117-1.675-1.116-1.117 0-2.792-0.558-3.908-0.559-0.558 0-1.117 0-1.117-0.558-0.558-0.558-1.117-0.558-2.233-0.558-0.558 0-0.558-0.558-1.117-0.559 1.117 1.117 1.675 2.233 2.233 3.35 0 0.558 0.558 0.558 0.559 1.117 0.558 1.117 0 1.675-1.675 1.675-1.117 0-1.117 0-1.675 0.558 0 1.117 0 1.675 0 2.792 0 0.558 0 1.117-1.117 1.675 0 0-0.558 0-0.558 0.558-0.558 0.558-0.558 1.117 0 1.675 1.675 1.117 2.792 1.675 4.466 2.233 1.675 0 1.675 1.117 2.234 2.233 0.558 1.117 0 1.675-0.559 2.792-1.117 1.117-2.233 2.233-3.35 3.35-1.675 0.558-2.792 2.233-4.466 2.233-1.117 0-2.233-0.558-2.792-1.675-0.558-2.792-0.558-5.025 0.559-7.816 0-0.558 0.558-1.117 0-1.675-5.025 0-5.025-1.117-5.025-1.675 0-1.117 0.558-1.675 0.558-2.792 0.558-1.117 0-1.675-1.675-2.233-0.558 0-1.117 0-1.675 0-0.558 0-0.558-0.558-1.675-0.558 1.117-0.558 1.675-0.558 2.792-1.117-0.558-2.233-1.117-3.908-2.792-5.025-0.558-0.558-1.117-1.117-1.116-2.233 0-1.675-1.117-2.792-1.675-3.908-1.117-1.675-3.35-2.233-5.025-2.233-1.675-0.558-2.792-0.558-4.467-1.117-1.675-0.558-3.35-2.233-5.024-2.792-0.558-0.558-1.117-1.117-2.234-1.674-2.233-1.117-3.908-2.792-5.583-4.467-1.117-0.558-1.675-1.675-2.791-2.233-1.117-1.117-1.675-2.233-2.792-2.792-1.117-1.117-2.233-2.233-3.908-3.35-1.675-1.117-2.792-2.792-4.467-4.466-1.117-1.675-2.792-2.792-4.466-3.908-0.558 0-1.117 0-1.675 0-0.558 0-1.117 0.558-1.675 0.558-1.675 0.558-2.792 1.675-4.467 2.233 0.558-0.558 0.558-0.558 0-1.675-0.558-0.558-1.117-1.117-1.674-1.116-1.117 0-2.233 0-3.35 0-2.233 0-4.467 0.558-6.7 0.558-1.675 0-3.908 0.558-5.583 1.117 0.558 1.117 0.558 1.675 1.116 2.791-1.117 0.558-2.233 0.558-3.35 0.558-0.558 0-1.675 0.558-2.233 1.117-0.558 0-0.558 0.558-1.116 0-1.117-0.558-2.233 0-3.35 0.558h-0.559c0 0 0-0.558 0.559-0.558 0.558-0.558 1.117-1.117 1.675-1.675 0.558-0.558 1.117-0.558 2.233-1.117-0.558-0.558-0.558-1.117-0.558-1.116-0.558-0.558-1.117-0.558-1.675 0-0.558 0.558-1.117 1.117-1.675 1.675-0.558 0.558-1.117 0.558-1.675 0-0.558-0.558-0.558-1.117 0-1.675 0-0.558 0.558-1.117 1.116-1.675 0.558-0.558 0.558-1.117 1.117-1.675-1.117-1.117-1.675-2.233-2.792-2.792-1.675-1.117-3.35-2.792-4.466-4.466-1.117-2.233-2.792-3.908-5.025-5.025-0.558-0.558-1.117-1.117-1.675-1.675-0.558-0.558-0.558-0.558-1.116-1.117-1.675 0.558-2.792 1.675-4.467 2.234-0.558 0-0.558 0.558-1.117 1.116-0.558 1.117-1.675 1.117-2.791 1.117-0.558 0-1.117-0.558-0.558-1.117 0.558-1.117 1.117-2.233 2.791-1.675 0 0 0.558 0 0.558-0.558 1.117-1.117 2.233-2.792 3.909-3.908-0.558-1.675-1.675-2.792-2.234-3.908-0.558-0.558-0.558-1.117-0.558-2.234 0-0.558 0-0.558-0.558-1.116 0 0-0.558 0-1.117 0.558-0.558 0.558-1.675 1.117-2.791 0 0-0.558 0-1.117 0.558-1.675l0.558-0.558c1.675-0.558 1.675-2.233 1.675-3.908v-0.559c-0.558-1.117-0.558-1.675 0.558-2.791 1.675-1.117 3.35-3.35 3.909-5.025 0.558-1.117 1.675-1.675 2.791-2.792 1.117-1.117 2.233-2.233 2.792-3.908h0.558c2.233 0.558 2.792-1.117 3.908-2.791 0-0.558 0-1.117 0.559-1.117 1.117-1.117 1.117-2.233 0.558-3.908 0-0.558-0.558-1.675-0.558-2.233 0-0.558 0-0.558-0.559-1.117-1.675-1.117-1.675-2.233 0-3.35 1.117-0.558 1.117-1.675 1.675-2.233 0.558-1.117 0.558-2.233 0.559-3.908-0.558-1.675-0.558-3.908-1.117-5.583-0.558-2.233-1.117-5.025-1.675-7.259 0-0.558 0-0.558 0-1.116 0-1.675 0-2.792-0.558-4.467-0.558-0.558-0.558-1.675-0.559-2.233-0.558-1.675-1.117-2.792-2.791-3.35-1.675-1.117-3.908-1.675-5.583-2.791-0.558-0.558-1.117 0-1.675 0.558-0.558 1.117-1.675 2.233-2.234 3.35-0.558 0.558-1.117 1.675-1.675 2.791-1.117 1.117-3.35 2.233-5.024 0.559-0.558-1.117-1.117-1.675 0-2.792 1.117-1.675 2.233-3.35 3.908-4.466 0.558-0.558 1.117-1.675 1.675-2.234 0.558-1.117 0.558-2.233 0.558-3.35-0.558-2.233-1.117-4.467-1.117-7.258 0-2.792 0-5.025 0.559-7.816 0.558-1.117 0.558-2.792 1.116-3.908 0-0.558 0.558-1.675 1.117-2.233 1.117-1.117 2.233-2.233 2.792-3.909 0.558-1.675 1.675-3.35 1.675-5.024 0-0.558 0.558-1.117 0.558-1.675 0-0.558 0.558-1.675 0.558-2.234-0.558-1.675 0-2.792 0.558-3.908 0.558-1.117 1.117-2.792 1.675-3.908 1.117-2.233 1.117-5.025 3.35-7.258 0.558-1.117 1.117-2.233 1.675-3.35 0.558-2.233 1.675-3.908 2.792-5.583 0.558-0.558 0.558-0.558 0.558-1.117 0.558-1.675 1.675-3.35 2.792-5.025 1.117-1.675 1.117-3.35 1.675-5.024 0-0.558 0-1.117 0.558-1.675 1.675-1.675 1.117-3.908 0.558-6.142-1.117-2.792-1.675-5.583-1.116-8.374 0-0.558 0-1.117 0.558-1.117 0.558-1.117 0.558-1.675 1.117-2.792v-0.558c1.117-1.117 2.233-2.792 3.908-3.35 2.233-1.117 4.467-1.675 7.258-2.233 2.233 0 4.467-1.117 6.141-3.35 0-0.558 0.558-0.558 1.117-1.117l0.558-0.558c0.558-1.117 1.117-1.675 1.675-2.233 1.117-1.117 2.233-2.792 3.35-3.908 1.117-1.117 2.233-2.792 3.908-4.467l0.559-0.558c1.117-1.117 2.233-2.233 3.349-2.792 1.117-1.117 2.233-2.233 3.35-3.35 1.117-1.117 1.675-2.233 2.792-3.35 1.117-0.558 2.233-1.675 3.35-2.791 1.117-1.117 2.233-2.233 2.791-2.792 1.117-1.117 2.792-2.233 3.909-2.791 1.117-0.558 2.233-1.117 2.791-2.792 0.558-1.675 1.117-2.792 1.675-4.466 0-1.117 0.558-2.233 1.117-3.35 0.558 0 1.117 0 2.233-0.558-0.558-0.558-1.117-0.558-1.117-1.117 0-0.558 0.558-1.117 0.559-1.117 0-0.558 0.558-1.117 0.558-1.675 0 0 0.558 0 0.558-0.558 0 0 0.558 0 0.559-0.558-1.117 0.558-1.675 0-2.234-0.559 0.558 0.558 1.117 0.558 2.234 1.117 0 0 0.558 0 0.558-0.558 0-0.558 0-1.117 0-1.117 0 0-0.558 0-1.117 0-0.558 0-1.117 0.558-1.675 0.558zM182.097 295.292c0-0.558-0.558-0.558-0.559-1.117-0.558-1.117 0-1.675 0.559-2.233 0.558-0.558 1.117-0.558 2.233-0.558 1.117 0.558 1.675 1.117 1.675 2.233 0 0.558 0 1.675 0 2.233 0.558 2.233 0.558 2.233 2.791 2.233 1.117 0 2.233 0 3.35 0 2.233-0.558 4.467-1.675 6.7-2.233 2.233-0.558 4.467-1.117 6.7-1.675 0.558 0 1.117 0 2.233 0 2.233 0.558 3.908 0 5.583-1.117 0.558-0.558 1.675-0.558 2.233-1.116 1.117-0.558 2.233-0.558 3.35-1.117 2.792-1.675 5.583-2.792 7.817-4.466 1.675-1.117 3.35-2.233 5.024-3.35 1.675-1.117 3.35-2.233 5.025-3.35 1.117-0.558 2.792-1.675 3.908-2.792 2.233-1.675 3.908-3.35 6.142-4.466 1.117-0.558 1.675-1.117 2.233-1.675 1.117-0.558 1.675-1.675 2.792-2.233 0.558-0.558 1.117-1.117 2.233-1.675 0.558-0.558 0.558-0.558 0.558-1.117 1.675-1.117 3.35-3.35 4.467-5.025 1.117-1.117 2.233-2.233 3.35-3.908 1.675-1.675 2.792-3.908 4.466-6.141 1.117-1.117 2.233-2.792 2.792-3.909 1.117-2.233 2.233-4.467 3.908-6.141v-0.558c1.117-2.233 2.233-4.467 3.35-6.7 1.675-2.792 2.792-6.141 4.466-8.933 0.558-1.117 1.117-2.233 1.117-3.35 1.117-2.233 1.675-4.467 2.233-6.7 0-0.558 0-0.558 0.559-1.116 1.675-3.35 2.792-6.7 3.349-10.608 0.558-2.233 1.117-4.467 1.675-6.7 1.117-3.35 1.117-6.141 1.675-9.491 0.558-2.233 0.558-5.025 0.559-7.258 0.558-3.35 0.558-7.258 0-10.608 0-2.792-0.558-6.141-0.559-8.933 0-2.792-0.558-5.025-1.116-7.817-0.558-2.792-1.117-5.025-1.675-7.816-1.117-2.233-1.675-4.467-2.234-7.258-0.558-2.233-1.675-3.908-1.674-6.142 0-1.675-0.558-3.35-2.234-3.908-1.675-0.558-2.792-1.117-4.466-2.233-3.35-2.233-5.025-5.025-4.467-8.375 0-1.675 0.558-3.908 1.117-5.583 0.558-1.675 1.117-3.35 0-4.467-0.558-1.675-1.675-2.792-2.233-3.908-1.117-1.675-1.675-2.792-2.792-3.908-1.117-2.233-2.233-4.467-3.908-6.141-2.233-2.792-3.908-5.583-6.7-7.817l-0.558-0.558c-1.675-2.233-3.35-4.467-5.583-6.142-1.117-1.117-2.233-2.233-3.35-2.791-0.558-0.558-1.117-1.117-2.233-1.675-1.675-1.117-3.35-1.675-4.467-2.792-1.675-1.675-3.908-2.792-5.583-3.908 0 0-0.558 0-0.558-0.558-2.233-1.117-3.908-1.675-6.142-2.792-2.233-1.117-4.467-1.675-6.7-1.675-0.558 0-0.558 0-1.116 0-0.558-0.558-1.675-0.558-2.233-0.558-0.558 0-0.558 0-1.117 0-1.117-0.558-2.792 0-3.908 0-2.233 0.558-4.467 0.558-6.7-0.558-2.792-1.117-5.025-2.233-7.258-3.35-1.675-1.117-2.792-2.233-4.467-3.35-3.35-2.792-6.7-6.141-10.608-8.933 0.558-2.792-0.558-3.35-2.791-3.35-1.117 0-2.233 0.558-3.35 1.117-0.558 0.558-0.558 0.558-1.117 1.116-1.675 1.117-2.792 2.792-4.466 3.909-2.792 1.675-3.908 1.117-6.142 0-0.558-0.558-1.117-1.117-1.675-1.675-1.117-1.117-2.233-2.792-2.791-3.909-1.117-2.233-3.35-2.233-5.583-2.233-1.117 0-2.792 0.558-3.908 0.558-2.233 0-4.467 1.117-5.584 2.792-1.117 1.675-2.233 3.35-3.908 5.025-0.558 0.558-1.675 1.117-2.233 2.233-1.117 1.117-2.233 1.117-3.35 0-0.558-0.558-1.117-0.558-1.675-1.117-0.558 0.558-1.117 1.117-1.117 1.675-0.558 1.117-1.117 2.233-1.674 3.909-0.558 1.675-1.675 3.35-2.792 4.466-0.558 0.558-0.558 0.558-1.117 1.117-0.558 1.117-2.233 1.675-3.35 1.675-1.117 1.117-2.233 2.792-2.791 3.908-0.558 1.117-1.117 2.233-1.675 3.908-0.558 0.558-0.558 1.675-1.117 2.233-0.558 1.117-0.558 1.675-0.558 2.792 0.558 1.675-0.558 2.233-2.233 2.791-1.117 0-1.117 0-1.675 1.117 0 1.675 0.558 2.792 1.116 4.467 0.558 0.558 1.117 1.675 1.117 2.233 0 1.117 0.558 1.675 1.675 2.233 0.558 0.558 1.117 1.117 1.675 1.117 0.558 0 0.558 0.558 1.117 0.558 0.558 0.558 1.117 0 1.116-0.558 0.558-1.675 1.117-3.35 1.117-5.025 0.558-2.233 0.558-3.908 1.116-6.142 0.558-1.117 1.117-1.675 1.675-2.233 0 0 0.558 0 1.117 0v0.559c-0.558 2.792-1.675 6.141-2.233 8.933-0.558 1.117-0.558 2.233-1.117 3.349 0 0.558-0.558 1.117-1.116 1.117-1.117 0.558-2.233 1.117-3.35 1.117-0.558 0-1.117 0-1.675 0-1.117-0.558-2.233-1.675-3.35-2.234-0.558-0.558-1.117-1.117-1.675-1.674-0.558-1.117-1.117-2.233-1.675-3.35-0.558-1.117-1.117-1.675-2.233-2.234-0.558-0.558-1.117-0.558-1.675-1.116-1.117-1.117-2.233-1.675-3.908-1.675-0.558 0-1.675 0-2.234 0-0.558 0-1.675 0.558-2.233 1.116-1.117 0.558-1.675 0.558-2.791 0-2.792-1.117-5.583-0.558-8.375 0.559-1.117 0.558-2.233 1.117-3.35 1.116-2.792 0-5.025 0-7.816 0-2.792 0-5.025-0.558-7.817-1.116-1.117 0-2.233 0-3.35 0-2.233 0.558-2.792 2.233-2.233 4.466 0.558 2.233 1.117 5.025 1.117 7.258 0 1.675 0 3.35 0 5.025 0 1.117 0 1.675 0 2.792 0 1.675-0.558 3.35-0.559 5.025-0.558 3.35-2.233 6.141-4.466 8.374-1.675 1.675-3.908 3.35-6.142 3.908-1.117 0.558-2.233 1.117-3.908 1.675-2.792 1.117-5.025 3.35-6.7 6.142-0.558 1.117-1.117 2.233-1.674 3.35-1.117 1.675-1.675 2.792-2.792 4.466-0.558 1.117-1.675 2.233-2.233 3.35-0.558 1.117-1.675 1.675-1.675 2.792-1.117 2.233-1.675 4.467-2.792 6.699-0.558 1.117-0.558 2.792-1.116 3.909-1.117 2.233-1.117 4.467-1.117 7.258 0 0.558 0 1.117 0 2.233 0 2.792-0.558 6.141-0.558 8.933 0 2.792 0 5.583 0.558 8.375 0 1.117 0 2.792 0 3.908 0 2.233 0.558 5.025 0.558 7.258 0 2.233 0 5.025 1.117 7.258v0.558c0.558 2.233 0.558 4.467 1.116 6.7 0 0.558 0 1.117 0.559 1.675 1.117 3.35 1.675 6.141 2.791 9.491 0.558 2.233 1.675 4.467 2.234 6.7 0.558 2.233 2.792 4.467 3.349 7.258v0c1.675 3.35 3.35 6.7 5.584 10.05 0.558 1.117 1.675 2.233 2.233 3.35 1.117 1.675 1.675 3.35 2.791 4.466 0.558 1.117 1.675 2.233 2.234 2.792 0.558 1.117 1.117 2.233 2.233 3.35 1.117 1.117 2.233 2.792 3.35 3.908 1.675 2.792 3.908 5.025 6.141 6.7 1.117 1.117 2.233 1.675 3.35 2.791 0.558 0.558 1.117 0.558 1.117 1.117 0.558 0.558 1.117 1.117 2.233 1.675 4.467 2.233 7.816 5.583 11.725 8.933 1.675 1.675 3.35 3.35 5.583 4.466 2.233 1.675 3.908 3.35 6.7 3.908 0 0 0.558 0 0.558 0.559 1.117 1.117 2.792 1.675 3.908 2.233 2.233 1.117 5.025 2.233 7.258 3.35 0.558 0.558 1.675 0.558 2.233 1.117 1.675 0.558 3.35 1.117 5.025 1.674 1.675 0.558 2.792 1.117 4.467 1.117h0.558c1.117 0.558 1.675 0.558 2.792 0 0.558 0 1.117 0 1.116 0.558 0 0.558 0.558 0.558 1.117 0.559 0.558 0 1.117 0 2.233 0 0.558-0.558 0.558-1.117 1.117-2.234 0.558 0.558 1.117 0.558 1.116 0.559 0.558 1.117 1.675 1.117 2.792 1.116h0.558c1.117 0 1.675 0 2.233-0.558 0-0.558 1.117-0.558 1.675-0.558 1.675 0.558 3.35 0.558 5.025 1.116 1.117 0.558 2.792 0.558 3.35-0.558 0.558-0.558 1.117-1.117 2.233-0.558 1.117 0.558 1.675 0.558 2.792 0 0.558 0 1.117 0 1.117 0 1.675 0.558 2.792 0.558 4.466 1.116 2.233 0.558 2.233 0.558 3.908-1.116 0.558-0.558 1.675-0.558 2.233 0 0.558 1.117 0.558 1.675 0.559 2.791 0.558 0 0.558 0 1.116-0.558 0-1.117 0.558-1.117 1.675-1.675 0.558 0.558 0.558 0.558 1.117 0.558 1.117 1.117 1.675 1.117 2.233-0.558 0-0.558 0-1.117 0.559-1.116 0.558 0 1.117 0.558 1.116 0.558 0.558 1.117 1.675 1.675 2.233 2.791 1.117 1.117 2.792 1.117 3.35 0 0.558-0.558 1.117-0.558 1.675-0.558 0-0.558 0-1.117 0-1.675 1.675 1.117 1.117 1.117 0.559 1.117zM89.417 34.559c1.675 0.558 2.792 0.558 3.349-0.558-1.117 0.558-2.233-0.558-3.349 0.558z" fill="#a547ea" fill-rule="nonzero" stroke="none" stroke-width="1" stroke-linecap="butt" stroke-linejoin="miter" stroke-miterlimit="10" stroke-dasharray="" stroke-dashoffset="0" font-family="none" font-weight="none" font-size="none" text-anchor="none" style="mix-blend-mode: normal" data-fill-palette-color="tertiary"></path></g><g transform="matrix(1,0,0,1,64,112.02493793228656)"><svg viewBox="0 0 192 135.95012413542688" height="135.95012413542688" width="192"><g><svg viewBox="0 0 305.05304988679245 216" height="135.95012413542688" width="192"><g><rect width="7.656880075471698" height="216" x="118.32367924528302" y="0" fill="#a547ea" opacity="1" stroke-width="0" stroke="transparent" fill-opacity="1" class="rect-o-0" data-fill-palette-color="primary" rx="1%" id="o-0" data-palette-color="#a547ea"></rect></g><g transform="matrix(1,0,0,1,146.02474800000002,18)"><svg viewBox="0 0 159.02830188679246 180" height="180" width="159.02830188679246"><g><svg viewBox="0 0 159.02830188679246 180" height="180" width="159.02830188679246" id="textblock"><g><svg viewBox="0 0 159.02830188679246 180" height="180" width="159.02830188679246"><g transform="matrix(1,0,0,1,0,0)"><svg width="159.02830188679246" viewBox="1.4499998092651367 -36 93.6500015258789 93.35000610351562" height="180" data-palette-color="#a547ea"><svg></svg><svg></svg><g class="undefined-text-0" data-fill-palette-color="primary" id="text-0"><path xmlns="http://www.w3.org/2000/svg" d="M10.9 4.35v0c-1.733 0-2.923-0.35-3.57-1.05-0.653-0.7-0.997-1.6-1.03-2.7v0c0-0.967 0.193-2.127 0.58-3.48 0.38-1.347 0.787-2.637 1.22-3.87v0c0.7-2.1 1.477-4.283 2.33-6.55 0.847-2.267 1.72-4.517 2.62-6.75 0.9-2.233 1.777-4.383 2.63-6.45 0.847-2.067 1.653-3.95 2.42-5.65v0c-2.267 0.033-4.207 0.09-5.82 0.17-1.62 0.087-3.087 0.197-4.4 0.33-1.32 0.133-2.713 0.333-4.18 0.6v0c0.133-1.3 0.76-2.31 1.88-3.03 1.113-0.713 2.62-1.213 4.52-1.5 1.9-0.28 4.067-0.42 6.5-0.42v0c1.633 0 3.133 0.05 4.5 0.15 1.367 0.1 2.667 0.21 3.9 0.33 1.233 0.113 2.45 0.203 3.65 0.27v0c1.033 0.5 1.717 0.817 2.05 0.95 0.333 0.133 0.417 0.2 0.25 0.2v0c-0.8 0.6-1.773 1.043-2.92 1.33-1.153 0.28-2.347 0.453-3.58 0.52-1.233 0.067-2.417 0.1-3.55 0.1v0c-1.433 3.5-2.823 7.34-4.17 11.52-1.353 4.187-2.647 8.497-3.88 12.93v0c-0.433 1.667-0.807 3.107-1.12 4.32-0.32 1.22-0.563 2.33-0.73 3.33-0.167 1-0.25 2.017-0.25 3.05v0c0 0.167 0.01 0.36 0.03 0.58 0.013 0.213 0.053 0.47 0.12 0.77zM26.95 2.2v0c-2.1 0-3.7-0.567-4.8-1.7-1.1-1.133-1.65-2.55-1.65-4.25v0c0-1.5 0.377-3.073 1.13-4.72 0.747-1.653 1.753-3.207 3.02-4.66 1.267-1.447 2.66-2.63 4.18-3.55 1.513-0.913 3.02-1.37 4.52-1.37v0c0.833 0 1.627 0.217 2.38 0.65 0.747 0.433 1.12 1.3 1.12 2.6v0c0 1.267-0.373 2.457-1.12 3.57-0.753 1.12-1.737 2.113-2.95 2.98-1.22 0.867-2.57 1.573-4.05 2.12-1.487 0.553-2.963 0.897-4.43 1.03v0c-0.033 0.2-0.067 0.4-0.1 0.6-0.033 0.2-0.05 0.467-0.05 0.8v0c0 0.267 0.043 0.623 0.13 1.07 0.08 0.453 0.247 0.903 0.5 1.35 0.247 0.453 0.637 0.83 1.17 1.13 0.533 0.3 1.233 0.45 2.1 0.45v0c1.4 0 2.81-0.4 4.23-1.2 1.413-0.8 2.737-1.86 3.97-3.18 1.233-1.313 2.267-2.77 3.1-4.37v0l0.85 0.7c-0.9 2-2.05 3.74-3.45 5.22-1.4 1.487-2.94 2.647-4.62 3.48-1.687 0.833-3.413 1.25-5.18 1.25zM24.75-6.65v0c0.867-0.167 1.85-0.51 2.95-1.03 1.1-0.513 2.15-1.163 3.15-1.95 1-0.78 1.827-1.637 2.48-2.57 0.647-0.933 0.97-1.883 0.97-2.85v0c0-0.367-0.067-0.633-0.2-0.8-0.133-0.167-0.367-0.25-0.7-0.25v0c-0.8 0-1.623 0.29-2.47 0.87-0.853 0.587-1.687 1.337-2.5 2.25-0.82 0.92-1.547 1.937-2.18 3.05-0.633 1.12-1.133 2.213-1.5 3.28zM31.4 14v0c-0.933 0-1.657-0.267-2.17-0.8-0.52-0.533-0.78-1.2-0.78-2v0c0-1.3 0.593-2.65 1.78-4.05 1.18-1.4 2.703-2.65 4.57-3.75v0c0.533-0.267 1.077-0.533 1.63-0.8 0.547-0.267 1.12-0.533 1.72-0.8v0c0.6-1.467 1.16-3.11 1.68-4.93 0.513-1.813 0.97-3.803 1.37-5.97v0c-0.367 0.633-0.723 1.217-1.07 1.75-0.353 0.533-0.647 1.033-0.88 1.5v0l-0.75-1.15c0.6-1.1 1.133-2.26 1.6-3.48 0.467-1.213 0.91-2.347 1.33-3.4 0.413-1.047 0.853-1.903 1.32-2.57 0.467-0.667 0.983-1 1.55-1v0c0.433 0 0.783 0.167 1.05 0.5 0.267 0.333 0.4 0.75 0.4 1.25v0c0 0.367-0.083 1.05-0.25 2.05-0.167 1-0.407 2.233-0.72 3.7-0.32 1.467-0.713 3.05-1.18 4.75-0.467 1.7-1 3.417-1.6 5.15v0c0.967-0.567 1.917-1.16 2.85-1.78 0.933-0.613 1.877-1.413 2.83-2.4 0.947-0.98 1.887-2.287 2.82-3.92v0l0.8 0.5c-0.967 2.1-2.033 3.723-3.2 4.87-1.167 1.153-2.333 2.063-3.5 2.73-1.167 0.667-2.267 1.317-3.3 1.95v0c-0.733 2.033-1.6 3.977-2.6 5.83-1 1.847-2.117 3.353-3.35 4.52-1.233 1.167-2.55 1.75-3.95 1.75zM30.9 11.85v0c0.6 0 1.493-0.657 2.68-1.97 1.18-1.32 2.387-3.263 3.62-5.83v0c-2.333 1.167-4.083 2.36-5.25 3.58-1.167 1.213-1.75 2.287-1.75 3.22v0c0 0.367 0.067 0.627 0.2 0.78 0.133 0.147 0.3 0.22 0.5 0.22zM45.1-21.4v0c-0.6 0-1.14-0.15-1.62-0.45-0.487-0.3-0.73-0.75-0.73-1.35v0c0-0.567 0.21-1.067 0.63-1.5 0.413-0.433 0.93-0.777 1.55-1.03 0.613-0.247 1.203-0.37 1.77-0.37v0c0.533 0 0.983 0.133 1.35 0.4 0.367 0.267 0.55 0.683 0.55 1.25v0c0 0.8-0.357 1.507-1.07 2.12-0.72 0.62-1.53 0.93-2.43 0.93zM52.05 2.35v0c-1.067 0-1.99-0.357-2.77-1.07-0.787-0.72-1.18-1.797-1.18-3.23v0c0-1.2 0.267-2.483 0.8-3.85 0.533-1.367 1.267-2.717 2.2-4.05 0.933-1.333 2-2.55 3.2-3.65 1.2-1.1 2.477-1.983 3.83-2.65 1.347-0.667 2.687-1 4.02-1v0c1.4 0 2.577 0.36 3.53 1.08 0.947 0.713 1.42 1.653 1.42 2.82v0c0 0.9-0.283 1.533-0.85 1.9-0.567 0.367-1.267 0.483-2.1 0.35v0c0.067-0.267 0.127-0.56 0.18-0.88 0.047-0.313 0.07-0.62 0.07-0.92v0c0-0.7-0.15-1.317-0.45-1.85-0.3-0.533-0.883-0.8-1.75-0.8v0c-0.933 0-1.883 0.317-2.85 0.95-0.967 0.633-1.9 1.467-2.8 2.5-0.9 1.033-1.7 2.167-2.4 3.4-0.7 1.233-1.25 2.45-1.65 3.65-0.4 1.2-0.6 2.267-0.6 3.2v0c0 1.133 0.417 1.7 1.25 1.7v0c0.767 0 1.61-0.367 2.53-1.1 0.913-0.733 1.847-1.667 2.8-2.8 0.947-1.133 1.853-2.293 2.72-3.48 0.867-1.18 1.617-2.22 2.25-3.12v0c0.133-0.167 0.25-0.25 0.35-0.25v0c0.167 0.033 0.433 0.107 0.8 0.22 0.367 0.12 0.7 0.28 1 0.48 0.3 0.2 0.45 0.467 0.45 0.8v0c0 0.333-0.15 0.757-0.45 1.27-0.3 0.52-0.633 1.097-1 1.73-0.367 0.633-0.7 1.267-1 1.9-0.3 0.633-0.45 1.25-0.45 1.85v0c0 0.433 0.127 0.857 0.38 1.27 0.247 0.42 0.653 0.63 1.22 0.63v0c0.833 0 1.977-0.61 3.43-1.83 1.447-1.213 2.92-3.203 4.42-5.97v0l0.8 0.8c-0.767 1.8-1.707 3.383-2.82 4.75-1.12 1.367-2.297 2.443-3.53 3.23-1.233 0.78-2.467 1.17-3.7 1.17v0c-1.333 0-2.317-0.407-2.95-1.22-0.633-0.82-0.983-1.713-1.05-2.68v0c0-0.1 0.01-0.21 0.03-0.33 0.013-0.113 0.02-0.22 0.02-0.32v0c-1.367 1.7-2.617 3.027-3.75 3.98-1.133 0.947-2.333 1.42-3.6 1.42zM77.1 2.55v0c-1.633 0-2.943-0.34-3.93-1.02-0.98-0.687-1.677-1.547-2.09-2.58-0.42-1.033-0.63-2.083-0.63-3.15v0c0-0.967 0.133-1.717 0.4-2.25 0.267-0.533 0.6-0.933 1-1.2 0.4-0.267 0.777-0.467 1.13-0.6 0.347-0.133 0.587-0.267 0.72-0.4v0c0.9-0.967 1.783-2.033 2.65-3.2 0.867-1.167 1.617-2.433 2.25-3.8v0-0.55c0-1.3 0.217-2.217 0.65-2.75 0.433-0.533 0.933-0.8 1.5-0.8v0c0.367 0 0.633 0.09 0.8 0.27 0.167 0.187 0.25 0.397 0.25 0.63v0c0 0.167-0.04 0.4-0.12 0.7-0.087 0.3-0.13 0.7-0.13 1.2v0c0 1.033 0.233 2.19 0.7 3.47 0.467 1.287 0.933 2.647 1.4 4.08 0.467 1.433 0.7 2.9 0.7 4.4v0c0 0.433-0.017 0.823-0.05 1.17-0.033 0.353-0.1 0.697-0.2 1.03v0c1.1-0.233 2.15-0.793 3.15-1.68 1-0.88 1.967-2.203 2.9-3.97v0l0.55 0.45c-0.633 1.9-1.557 3.39-2.77 4.47-1.22 1.087-2.613 1.747-4.18 1.98v0c-0.533 1.4-1.4 2.433-2.6 3.1-1.2 0.667-2.55 1-4.05 1zM76.9 0.5v0c0.567 0 1.15-0.157 1.75-0.47 0.6-0.32 1.083-0.863 1.45-1.63v0c-1.4-0.3-2.64-0.843-3.72-1.63-1.087-0.78-1.93-1.587-2.53-2.42v0c-0.533 0.1-0.8 0.6-0.8 1.5v0c0 1.133 0.327 2.19 0.98 3.17 0.647 0.987 1.603 1.48 2.87 1.48zM80.45-2.9v0c0.067-0.267 0.11-0.567 0.13-0.9 0.013-0.333 0.02-0.633 0.02-0.9v0c-0.033-1.533-0.233-3.04-0.6-4.52-0.367-1.487-0.717-2.98-1.05-4.48v0c-0.667 1.133-1.407 2.29-2.22 3.47-0.82 1.187-1.58 2.147-2.28 2.88v0c0.5 0.967 1.277 1.867 2.33 2.7 1.047 0.833 2.27 1.417 3.67 1.75z" fill="#a547ea" fill-rule="nonzero" stroke="none" stroke-width="1" stroke-linecap="butt" stroke-linejoin="miter" stroke-miterlimit="10" stroke-dasharray="" stroke-dashoffset="0" font-family="none" font-weight="none" font-size="none" text-anchor="none" style="mix-blend-mode: normal" data-fill-palette-color="primary" opacity="1"></path><path xmlns="http://www.w3.org/2000/svg" d="M5.35 57.35v0c-0.933 0-1.817-0.257-2.65-0.77-0.833-0.52-1.25-1.18-1.25-1.98v0c0-0.4 0.077-0.85 0.23-1.35 0.147-0.5 0.287-0.967 0.42-1.4v0c1.033-3.2 2.01-6.193 2.93-8.98 0.913-2.78 1.83-5.463 2.75-8.05 0.913-2.58 1.887-5.17 2.92-7.77 1.033-2.6 2.183-5.317 3.45-8.15v0c-1.267 0.233-2.357 0.567-3.27 1-0.92 0.433-1.67 0.817-2.25 1.15-0.587 0.333-0.997 0.5-1.23 0.5v0c-0.167 0-0.4-0.11-0.7-0.33-0.3-0.213-0.557-0.453-0.77-0.72-0.22-0.267-0.33-0.5-0.33-0.7v0c0.9-0.4 1.967-0.817 3.2-1.25 1.233-0.433 2.567-0.8 4-1.1 1.433-0.3 2.867-0.45 4.3-0.45v0c1.533 0 3.1 0.207 4.7 0.62 1.6 0.42 3.077 1.04 4.43 1.86 1.347 0.813 2.43 1.82 3.25 3.02 0.813 1.2 1.22 2.617 1.22 4.25v0c0 1.767-0.39 3.273-1.17 4.52-0.787 1.253-1.83 2.313-3.13 3.18-1.3 0.867-2.707 1.567-4.22 2.1-1.52 0.533-3.03 0.933-4.53 1.2-1.5 0.267-2.833 0.45-4 0.55-1.167 0.1-2.05 0.15-2.65 0.15v0h-0.35c-0.967 3.333-1.9 6.65-2.8 9.95-0.9 3.3-1.733 6.283-2.5 8.95zM11 37.15v0c1.867-0.133 3.733-0.45 5.6-0.95 1.867-0.5 3.567-1.2 5.1-2.1 1.533-0.9 2.767-2.033 3.7-3.4 0.933-1.367 1.4-2.95 1.4-4.75v0c0-1.733-0.433-3.133-1.3-4.2-0.867-1.067-1.99-1.867-3.37-2.4-1.387-0.533-2.847-0.817-4.38-0.85v0c-1.233 2.367-2.407 5.183-3.52 8.45-1.12 3.267-2.197 6.667-3.23 10.2zM26.6 55.35v0c-1.067 0-1.99-0.357-2.77-1.07-0.787-0.72-1.18-1.797-1.18-3.23v0c0-1.2 0.267-2.483 0.8-3.85 0.533-1.367 1.267-2.717 2.2-4.05 0.933-1.333 2-2.55 3.2-3.65 1.2-1.1 2.477-1.983 3.83-2.65 1.347-0.667 2.687-1 4.02-1v0c1.4 0 2.577 0.36 3.53 1.08 0.947 0.713 1.42 1.653 1.42 2.82v0c0 0.9-0.283 1.533-0.85 1.9-0.567 0.367-1.267 0.483-2.1 0.35v0c0.067-0.267 0.127-0.56 0.18-0.88 0.047-0.313 0.07-0.62 0.07-0.92v0c0-0.7-0.15-1.317-0.45-1.85-0.3-0.533-0.883-0.8-1.75-0.8v0c-0.933 0-1.883 0.317-2.85 0.95-0.967 0.633-1.9 1.467-2.8 2.5-0.9 1.033-1.7 2.167-2.4 3.4-0.7 1.233-1.25 2.45-1.65 3.65-0.4 1.2-0.6 2.267-0.6 3.2v0c0 1.133 0.417 1.7 1.25 1.7v0c0.767 0 1.61-0.367 2.53-1.1 0.913-0.733 1.847-1.667 2.8-2.8 0.947-1.133 1.853-2.293 2.72-3.48 0.867-1.18 1.617-2.22 2.25-3.12v0c0.133-0.167 0.25-0.25 0.35-0.25v0c0.167 0.033 0.433 0.107 0.8 0.22 0.367 0.12 0.7 0.28 1 0.48 0.3 0.2 0.45 0.467 0.45 0.8v0c0 0.333-0.15 0.757-0.45 1.27-0.3 0.52-0.633 1.097-1 1.73-0.367 0.633-0.7 1.267-1 1.9-0.3 0.633-0.45 1.25-0.45 1.85v0c0 0.433 0.127 0.857 0.38 1.27 0.247 0.42 0.653 0.63 1.22 0.63v0c0.833 0 1.977-0.61 3.43-1.83 1.447-1.213 2.92-3.203 4.42-5.97v0l0.8 0.8c-0.767 1.8-1.707 3.383-2.82 4.75-1.12 1.367-2.297 2.443-3.53 3.23-1.233 0.78-2.467 1.17-3.7 1.17v0c-1.333 0-2.317-0.407-2.95-1.22-0.633-0.82-0.983-1.713-1.05-2.68v0c0-0.1 0.01-0.21 0.03-0.33 0.013-0.113 0.02-0.22 0.02-0.32v0c-1.367 1.7-2.617 3.027-3.75 3.98-1.133 0.947-2.333 1.42-3.6 1.42zM50.45 55.3v0c-1.467 0-2.623-0.423-3.47-1.27-0.853-0.853-1.28-2.147-1.28-3.88v0c0-1.4 0.267-3.133 0.8-5.2 0.533-2.067 1.2-4.2 2-6.4v0c-0.267-0.067-0.557-0.127-0.87-0.18-0.32-0.047-0.613-0.137-0.88-0.27v0-1.35c0.433 0.067 0.823 0.117 1.17 0.15 0.353 0.033 0.73 0.067 1.13 0.1v0c0.7-1.767 1.46-3.483 2.28-5.15 0.813-1.667 1.62-3.15 2.42-4.45 0.8-1.3 1.567-2.333 2.3-3.1 0.733-0.767 1.367-1.15 1.9-1.15v0c0.333 0 0.633 0.117 0.9 0.35 0.267 0.233 0.4 0.567 0.4 1v0c0 0.633-0.34 1.573-1.02 2.82-0.687 1.253-1.54 2.72-2.56 4.4-1.013 1.687-1.987 3.497-2.92 5.43v0c0.267 0 0.543 0 0.83 0 0.28 0 0.553 0 0.82 0v0c1.333 0 2.6-0.027 3.8-0.08 1.2-0.047 2.417-0.137 3.65-0.27v0 1.4c-1.833 0.2-3.507 0.35-5.02 0.45-1.52 0.1-2.93 0.15-4.23 0.15v0c-0.1 0-0.21 0-0.33 0-0.113 0-0.22 0-0.32 0v0c-0.733 1.7-1.357 3.433-1.87 5.2-0.52 1.767-0.78 3.483-0.78 5.15v0c0 1.4 0.217 2.39 0.65 2.97 0.433 0.587 1.133 0.88 2.1 0.88v0c1.667 0 3.367-0.767 5.1-2.3 1.733-1.533 3.233-3.6 4.5-6.2v0l0.7 0.5c-0.833 1.933-1.883 3.683-3.15 5.25-1.267 1.567-2.64 2.8-4.12 3.7-1.487 0.9-3.03 1.35-4.63 1.35zM66 55.2v0c-2.1 0-3.7-0.567-4.8-1.7-1.1-1.133-1.65-2.55-1.65-4.25v0c0-1.5 0.377-3.073 1.13-4.72 0.747-1.653 1.753-3.207 3.02-4.66 1.267-1.447 2.66-2.63 4.18-3.55 1.513-0.913 3.02-1.37 4.52-1.37v0c0.833 0 1.627 0.217 2.38 0.65 0.747 0.433 1.12 1.3 1.12 2.6v0c0 1.267-0.373 2.457-1.12 3.57-0.753 1.12-1.737 2.113-2.95 2.98-1.22 0.867-2.57 1.573-4.05 2.12-1.487 0.553-2.963 0.897-4.43 1.03v0c-0.033 0.2-0.067 0.4-0.1 0.6-0.033 0.2-0.05 0.467-0.05 0.8v0c0 0.267 0.043 0.623 0.13 1.07 0.08 0.453 0.247 0.903 0.5 1.35 0.247 0.453 0.637 0.83 1.17 1.13 0.533 0.3 1.233 0.45 2.1 0.45v0c1.4 0 2.81-0.4 4.23-1.2 1.413-0.8 2.737-1.86 3.97-3.18 1.233-1.313 2.267-2.77 3.1-4.37v0l0.85 0.7c-0.9 2-2.05 3.74-3.45 5.22-1.4 1.487-2.943 2.647-4.63 3.48-1.68 0.833-3.403 1.25-5.17 1.25zM63.8 46.35v0c0.867-0.167 1.85-0.51 2.95-1.03 1.1-0.513 2.15-1.163 3.15-1.95 1-0.78 1.827-1.637 2.48-2.57 0.647-0.933 0.97-1.883 0.97-2.85v0c0-0.367-0.067-0.633-0.2-0.8-0.133-0.167-0.367-0.25-0.7-0.25v0c-0.8 0-1.627 0.29-2.48 0.87-0.847 0.587-1.68 1.337-2.5 2.25-0.813 0.92-1.537 1.937-2.17 3.05-0.633 1.12-1.133 2.213-1.5 3.28zM81.5 54.5v0c-1.533 0-2.607-0.517-3.22-1.55-0.62-1.033-0.93-2.267-0.93-3.7v0c0-1.633 0.3-3.55 0.9-5.75 0.6-2.2 1.393-4.51 2.38-6.93 0.98-2.413 2.063-4.78 3.25-7.1 1.18-2.313 2.36-4.413 3.54-6.3 1.187-1.88 2.287-3.38 3.3-4.5 1.02-1.113 1.83-1.67 2.43-1.67v0c0.4 0 0.74 0.217 1.02 0.65 0.287 0.433 0.513 0.96 0.68 1.58 0.167 0.613 0.25 1.17 0.25 1.67v0c0 0.9-0.227 2.073-0.68 3.52-0.447 1.453-1.077 3.053-1.89 4.8-0.82 1.753-1.787 3.537-2.9 5.35-1.12 1.82-2.347 3.553-3.68 5.2-1.333 1.653-2.767 3.08-4.3 4.28v0c-0.133 0.833-0.257 1.667-0.37 2.5-0.12 0.833-0.18 1.6-0.18 2.3v0c0 1.233 0.19 2.14 0.57 2.72 0.387 0.587 0.913 0.88 1.58 0.88v0c0.867 0 1.743-0.4 2.63-1.2 0.88-0.8 1.72-1.81 2.52-3.03 0.8-1.213 1.5-2.47 2.1-3.77v0l1.05 0.6c-1.4 2.9-2.95 5.2-4.65 6.9-1.7 1.7-3.5 2.55-5.4 2.55zM82.4 41.4v0c1.167-1.2 2.267-2.543 3.3-4.03 1.033-1.48 1.993-2.987 2.88-4.52 0.88-1.533 1.653-3.027 2.32-4.48 0.667-1.447 1.183-2.747 1.55-3.9 0.367-1.147 0.567-2.053 0.6-2.72v0c0-0.133-0.017-0.227-0.05-0.28-0.033-0.047-0.05-0.07-0.05-0.07v0c-0.267 0-0.707 0.39-1.32 1.17-0.62 0.787-1.34 1.847-2.16 3.18-0.813 1.333-1.653 2.867-2.52 4.6-0.867 1.733-1.7 3.55-2.5 5.45-0.8 1.9-1.483 3.767-2.05 5.6z" fill="#a547ea" fill-rule="nonzero" stroke="none" stroke-width="1" stroke-linecap="butt" stroke-linejoin="miter" stroke-miterlimit="10" stroke-dasharray="" stroke-dashoffset="0" font-family="none" font-weight="none" font-size="none" text-anchor="none" style="mix-blend-mode: normal" data-fill-palette-color="primary" opacity="1"></path></g></svg></g></svg></g></svg></g></svg></g><g transform="matrix(1,0,0,1,0,44.494116887495366)"><svg viewBox="0 0 98.27949056603774 127.01176622500927" height="127.01176622500927" width="98.27949056603774"><g><svg xmlns="http://www.w3.org/2000/svg" xmlns:xlink="http://www.w3.org/1999/xlink" version="1.1" x="0" y="0" viewBox="12.982999801635742 1 75.68599700927734 97.81300354003906" enable-background="new 0 0 100 100" xml:space="preserve" height="127.01176622500927" width="98.27949056603774" class="icon-icon-0" data-fill-palette-color="accent" id="icon-0"><g fill="#a547ea" data-fill-palette-color="accent"><polygon fill-rule="evenodd" clip-rule="evenodd" points="12.983,10.59 30.001,98.813 24.129,39.764 53.15,37.872 53.096,27.989    64.549,1 53.622,18.977  " fill="#a547ea" data-fill-palette-color="accent"></polygon><polygon fill-rule="evenodd" clip-rule="evenodd" points="59.389,54.548 64.549,1.007 55.809,40.723 36.197,41.768 37.767,62.23    30.001,98.813 42.058,58.914  " fill="#a547ea" data-fill-palette-color="accent"></polygon><polygon fill-rule="evenodd" clip-rule="evenodd" points="62.8,67.182 63.349,56.729 47.37,60.484 47.338,72.281 30.001,98.813    51.681,71.197  " fill="#a547ea" data-fill-palette-color="accent"></polygon><polygon fill-rule="evenodd" clip-rule="evenodd" points="65.711,62.394 80.552,57.663 82.061,45.131 66.162,47.226  " fill="#a547ea" data-fill-palette-color="accent"></polygon><polygon fill-rule="evenodd" clip-rule="evenodd" points="72.07,44.502 83.058,43.085 84.639,32.807 76.56,32.434 64.549,1    72.979,31.967  " fill="#a547ea" data-fill-palette-color="accent"></polygon><polygon fill-rule="evenodd" clip-rule="evenodd" points="87.413,31.294 88.669,21.788 79.125,19.094 64.549,1 79.032,23.437    78.61,30.437  " fill="#a547ea" data-fill-palette-color="accent"></polygon></g></svg></g></svg></g></svg></g></svg></g></svg></g><defs></defs></svg><rect width="320" height="360" fill="none" stroke="none" visibility="hidden"></rect></g></svg></g></svg>